M48
; DRILL file {KiCad 7.0.9-7.0.9~ubuntu20.04.1} date Sun 21 Jan 2024 07:49:43 PM MST
; FORMAT={-:-/ absolute / inch / decimal}
; #@! TF.CreationDate,2024-01-21T19:49:43-07:00
; #@! TF.GenerationSoftware,Kicad,Pcbnew,7.0.9-7.0.9~ubuntu20.04.1
; #@! TF.FileFunction,Plated,1,2,PTH
FMAT,2
INCH
; #@! TA.AperFunction,Plated,PTH,ViaDrill
T1C0.0118
; #@! TA.AperFunction,Plated,PTH,ComponentDrill
T2C0.0394
%
G90
G05
T1
X3.688Y-3.7854
X3.6919Y-3.9055
X3.8967Y-2.378
X3.9134Y-3.3474
X3.9262Y-2.4675
X3.9262Y-2.7943
X3.9301Y-2.9774
X3.935Y-3.501
X3.939Y-2.1476
X3.9429Y-3.1732
X3.9478Y-3.6496
X3.9606Y-2.6161
X4.0965Y-2.0719
X4.2283Y-3.875
X4.2963Y-2.0502
X4.373Y-3.9478
X4.5049Y-3.9478
X4.5089Y-2.0669
X4.5728Y-3.9006
X4.7303Y-2.1181
X5.0709Y-2.0374
X5.1299Y-3.7608
X5.2283Y-2.5295
X5.2451Y-2.0335
X5.2864Y-2.3317
X5.3091Y-2.6378
X5.3583Y-2.1486
X5.4163Y-2.7313
X5.4183Y-2.3297
X5.4321Y-3.7303
X5.4774Y-2.5876
X5.4793Y-3.811
X5.4823Y-2.7165
X5.5896Y-3.8494
X5.6496Y-3.3819
X5.6496Y-3.5266
X5.6496Y-3.7008
X5.6624Y-3.1516
X5.6703Y-3.2717
X5.7726Y-2.0364
X5.8524Y-2.0768
X5.8612Y-2.0079
X6.061Y-2.0837
X6.2129Y-2.1896
X6.2677Y-2.2756
X6.4252Y-2.2254
X6.5354Y-2.0935
X6.5404Y-2.0226
X6.688Y-2.2283
X6.815Y-2.2185
X7.0089Y-2.251
X7.1142Y-2.2362
X7.2215Y-2.2805
X7.2559Y-2.2352
X7.2953Y-2.2598
X7.3612Y-2.2205
X7.4055Y-2.2923
X7.4833Y-2.251
T2
X5.5709Y-2.5197
X5.5709Y-2.6197
X5.5709Y-2.7197
X5.5709Y-2.8197
X5.5709Y-2.9197
X5.5709Y-3.0197
X5.5709Y-3.1197
X5.5709Y-3.2197
X6.3898Y-2.0472
X6.3898Y-2.1472
X6.4898Y-2.0472
X6.4898Y-2.1472
X6.5898Y-2.0472
X6.5898Y-2.1472
X6.6898Y-2.0472
X6.6898Y-2.1472
X6.7898Y-2.0472
X6.7898Y-2.1472
X6.8898Y-2.0472
X6.8898Y-2.1472
X6.9898Y-2.0472
X6.9898Y-2.1472
X7.0898Y-2.0472
X7.0898Y-2.1472
X7.1898Y-2.0472
X7.1898Y-2.1472
X7.2898Y-2.0472
X7.2898Y-2.1472
X7.3898Y-2.0472
X7.3898Y-2.1472
X7.4898Y-2.0472
X7.4898Y-2.1472
T0
M30
