G04 #@! TF.GenerationSoftware,KiCad,Pcbnew,7.0.9-7.0.9~ubuntu20.04.1*
G04 #@! TF.CreationDate,2024-01-21T19:49:38-07:00*
G04 #@! TF.ProjectId,lcdandbuttonboard3b,6c636461-6e64-4627-9574-746f6e626f61,rev?*
G04 #@! TF.SameCoordinates,Original*
G04 #@! TF.FileFunction,Copper,L2,Bot*
G04 #@! TF.FilePolarity,Positive*
%FSLAX46Y46*%
G04 Gerber Fmt 4.6, Leading zero omitted, Abs format (unit mm)*
G04 Created by KiCad (PCBNEW 7.0.9-7.0.9~ubuntu20.04.1) date 2024-01-21 19:49:38*
%MOMM*%
%LPD*%
G01*
G04 APERTURE LIST*
G04 #@! TA.AperFunction,ComponentPad*
%ADD10R,1.700000X1.700000*%
G04 #@! TD*
G04 #@! TA.AperFunction,ComponentPad*
%ADD11O,1.700000X1.700000*%
G04 #@! TD*
G04 #@! TA.AperFunction,SMDPad,CuDef*
%ADD12R,1.550000X1.300000*%
G04 #@! TD*
G04 #@! TA.AperFunction,ViaPad*
%ADD13C,0.600000*%
G04 #@! TD*
G04 #@! TA.AperFunction,Conductor*
%ADD14C,0.250000*%
G04 #@! TD*
G04 APERTURE END LIST*
D10*
X141500000Y-64000000D03*
D11*
X141500000Y-66540000D03*
X141500000Y-69080000D03*
X141500000Y-71620000D03*
X141500000Y-74160000D03*
X141500000Y-76700000D03*
X141500000Y-79240000D03*
X141500000Y-81780000D03*
D10*
X162300000Y-54540000D03*
D11*
X162300000Y-52000000D03*
X164840000Y-54540000D03*
X164840000Y-52000000D03*
X167380000Y-54540000D03*
X167380000Y-52000000D03*
X169920000Y-54540000D03*
X169920000Y-52000000D03*
X172460000Y-54540000D03*
X172460000Y-52000000D03*
X175000000Y-54540000D03*
X175000000Y-52000000D03*
X177540000Y-54540000D03*
X177540000Y-52000000D03*
X180080000Y-54540000D03*
X180080000Y-52000000D03*
X182620000Y-54540000D03*
X182620000Y-52000000D03*
X185160000Y-54540000D03*
X185160000Y-52000000D03*
X187700000Y-54540000D03*
X187700000Y-52000000D03*
X190240000Y-54540000D03*
X190240000Y-52000000D03*
D12*
X97025000Y-100250000D03*
X104975000Y-100250000D03*
X97025000Y-95750000D03*
X104975000Y-95750000D03*
X119025000Y-100250000D03*
X126975000Y-100250000D03*
X119025000Y-95750000D03*
X126975000Y-95750000D03*
D13*
X98975000Y-60400000D03*
X148875000Y-51000000D03*
X100275000Y-92700000D03*
X136100000Y-54575000D03*
X186975000Y-56400000D03*
X146625000Y-51725000D03*
X137625000Y-59175000D03*
X157808411Y-55616589D03*
X141975000Y-97775000D03*
X120150000Y-53800000D03*
X99400000Y-85025000D03*
X143500000Y-85900000D03*
X100600000Y-66450000D03*
X143500000Y-94000000D03*
X180700000Y-56800000D03*
X114425000Y-100275000D03*
X143500000Y-89575000D03*
X114525000Y-52500000D03*
X143825000Y-80050000D03*
X169875000Y-56600000D03*
X99950000Y-88925000D03*
X100050000Y-54550000D03*
X137975000Y-94750000D03*
X188100000Y-58225000D03*
X173100000Y-56350000D03*
X116150000Y-99075000D03*
X93675000Y-96150000D03*
X166125000Y-51375000D03*
X183425000Y-57925000D03*
X107400000Y-98425000D03*
X144025000Y-83100000D03*
X128800000Y-51750000D03*
X190075000Y-57175000D03*
X166000000Y-53175000D03*
X99825000Y-75625000D03*
X104050000Y-52625000D03*
X99725000Y-70975000D03*
X111075000Y-100275000D03*
X184300000Y-56775000D03*
X178025000Y-57175500D03*
X163200000Y-56525000D03*
X133225000Y-51650000D03*
X185300000Y-57400000D03*
X132800000Y-64250000D03*
X100150000Y-80600000D03*
X109125000Y-52075000D03*
X93775000Y-99200000D03*
X139175000Y-96800000D03*
X139125000Y-65725000D03*
X99725000Y-62675000D03*
X130300000Y-95525000D03*
X134275000Y-59225000D03*
X139250000Y-69000000D03*
X137575000Y-69375000D03*
X159200000Y-57800000D03*
X148650000Y-52750000D03*
X134850000Y-67000000D03*
X153950000Y-52925000D03*
D14*
X111075000Y-100275000D02*
X114425000Y-100275000D01*
X176365000Y-54885000D02*
X176365000Y-54053299D01*
X144325000Y-61825000D02*
X150533411Y-55616589D01*
X153633884Y-51725000D02*
X146625000Y-51725000D01*
X166000000Y-53175000D02*
X155083884Y-53175000D01*
X171000000Y-53175000D02*
X171275000Y-53450000D01*
X141000000Y-51725000D02*
X137625000Y-55100000D01*
X167380000Y-52000000D02*
X168555000Y-53175000D01*
X147525000Y-50825000D02*
X146625000Y-51725000D01*
X101975000Y-52625000D02*
X100050000Y-54550000D01*
X99825000Y-75625000D02*
X100150000Y-75950000D01*
X99400000Y-88375000D02*
X99950000Y-88925000D01*
X139175000Y-95950000D02*
X139175000Y-96800000D01*
X182300000Y-56800000D02*
X183425000Y-57925000D01*
X144025000Y-80250000D02*
X143825000Y-80050000D01*
X167380000Y-52000000D02*
X166205000Y-53175000D01*
X166205000Y-53175000D02*
X166000000Y-53175000D01*
X173100000Y-56350000D02*
X174900000Y-56350000D01*
X143500000Y-89575000D02*
X143500000Y-85900000D01*
X171275000Y-53450000D02*
X171275000Y-55200000D01*
X163200000Y-56525000D02*
X162036396Y-56525000D01*
X141975000Y-95525000D02*
X143500000Y-94000000D01*
X156511396Y-51000000D02*
X148875000Y-51000000D01*
X141975000Y-97775000D02*
X141975000Y-95525000D01*
X114525000Y-52500000D02*
X109550000Y-52500000D01*
X155083884Y-53175000D02*
X153633884Y-51725000D01*
X128800000Y-51750000D02*
X126750000Y-53800000D01*
X178216701Y-53365000D02*
X178800000Y-53948299D01*
X144025000Y-83100000D02*
X144025000Y-80250000D01*
X180700000Y-56800000D02*
X182300000Y-56800000D01*
X185300000Y-57400000D02*
X184925000Y-57400000D01*
X168555000Y-53175000D02*
X171000000Y-53175000D01*
X166125000Y-51375000D02*
X165997845Y-51375000D01*
X177053299Y-53365000D02*
X178216701Y-53365000D01*
X178800000Y-53948299D02*
X178800000Y-56400500D01*
X139125000Y-65725000D02*
X139940000Y-66540000D01*
X93775000Y-99200000D02*
X106625000Y-99200000D01*
X109550000Y-52500000D02*
X109125000Y-52075000D01*
X165997845Y-51375000D02*
X165447845Y-50825000D01*
X150533411Y-55616589D02*
X157808411Y-55616589D01*
X97233883Y-96150000D02*
X93675000Y-96150000D01*
X137975000Y-94750000D02*
X139175000Y-95950000D01*
X100150000Y-75950000D02*
X100150000Y-80600000D01*
X139940000Y-66540000D02*
X141500000Y-66540000D01*
X162036396Y-56525000D02*
X156511396Y-51000000D01*
X126750000Y-99075000D02*
X130300000Y-95525000D01*
X137625000Y-55100000D02*
X137625000Y-59175000D01*
X104050000Y-52625000D02*
X101975000Y-52625000D01*
X144325000Y-62954721D02*
X144325000Y-61825000D01*
X136100000Y-54575000D02*
X136100000Y-57400000D01*
X178800000Y-56400500D02*
X178025000Y-57175500D01*
X171275000Y-55200000D02*
X169875000Y-56600000D01*
X100600000Y-70100000D02*
X99725000Y-70975000D01*
X136100000Y-57400000D02*
X134275000Y-59225000D01*
X100275000Y-92700000D02*
X100275000Y-93108883D01*
X174900000Y-56350000D02*
X176365000Y-54885000D01*
X132800000Y-64250000D02*
X133225000Y-63825000D01*
X99400000Y-85025000D02*
X99400000Y-88375000D01*
X146625000Y-51725000D02*
X141000000Y-51725000D01*
X100600000Y-66450000D02*
X100600000Y-70100000D01*
X133225000Y-63825000D02*
X133225000Y-51650000D01*
X98975000Y-60400000D02*
X98975000Y-61925000D01*
X190075000Y-57175000D02*
X190075000Y-57399500D01*
X106625000Y-99200000D02*
X107400000Y-98425000D01*
X186975000Y-57100000D02*
X188100000Y-58225000D01*
X184925000Y-57400000D02*
X184300000Y-56775000D01*
X144425000Y-63615000D02*
X144425000Y-63054721D01*
X141500000Y-66540000D02*
X144425000Y-63615000D01*
X116150000Y-99075000D02*
X126750000Y-99075000D01*
X98975000Y-61925000D02*
X99725000Y-62675000D01*
X144425000Y-63054721D02*
X144325000Y-62954721D01*
X165447845Y-50825000D02*
X147525000Y-50825000D01*
X186975000Y-56400000D02*
X186975000Y-57100000D01*
X126750000Y-53800000D02*
X120150000Y-53800000D01*
X176365000Y-54053299D02*
X177053299Y-53365000D01*
X139250000Y-69000000D02*
X141420000Y-69000000D01*
X187325000Y-50625000D02*
X186335000Y-51615000D01*
X141420000Y-69000000D02*
X141500000Y-69080000D01*
X188865000Y-50625000D02*
X187325000Y-50625000D01*
X186335000Y-58415000D02*
X185900000Y-58850000D01*
X146388604Y-54125000D02*
X137575000Y-62938604D01*
X162561396Y-58850000D02*
X157836396Y-54125000D01*
X157836396Y-54125000D02*
X146388604Y-54125000D01*
X137575000Y-62938604D02*
X137575000Y-69375000D01*
X185900000Y-58850000D02*
X162561396Y-58850000D01*
X186335000Y-51615000D02*
X186335000Y-58415000D01*
X190240000Y-52000000D02*
X188865000Y-50625000D01*
X149050000Y-57800000D02*
X159200000Y-57800000D01*
X144875000Y-68245000D02*
X144875000Y-61975000D01*
X144875000Y-61975000D02*
X149050000Y-57800000D01*
X141500000Y-71620000D02*
X144875000Y-68245000D01*
X189065000Y-53365000D02*
X187700000Y-52000000D01*
X146575000Y-54575000D02*
X157650000Y-54575000D01*
X189065000Y-58685000D02*
X189065000Y-53365000D01*
X138325000Y-62825000D02*
X146575000Y-54575000D01*
X141500000Y-74160000D02*
X138325000Y-70985000D01*
X138325000Y-70985000D02*
X138325000Y-62825000D01*
X162375000Y-59300000D02*
X188450000Y-59300000D01*
X188450000Y-59300000D02*
X189065000Y-58685000D01*
X157650000Y-54575000D02*
X162375000Y-59300000D01*
X153775000Y-52750000D02*
X153950000Y-52925000D01*
X134850000Y-92375000D02*
X134850000Y-67000000D01*
X148650000Y-52750000D02*
X153775000Y-52750000D01*
X126975000Y-100250000D02*
X134850000Y-92375000D01*
X119025000Y-100250000D02*
X126975000Y-100250000D01*
X163275000Y-58400000D02*
X158550000Y-53675000D01*
X158550000Y-53675000D02*
X146202208Y-53675000D01*
X108550000Y-99875000D02*
X108175000Y-100250000D01*
X108550000Y-91327208D02*
X108550000Y-99875000D01*
X146202208Y-53675000D02*
X108550000Y-91327208D01*
X104975000Y-100250000D02*
X97025000Y-100250000D01*
X177540000Y-54540000D02*
X173680000Y-58400000D01*
X108175000Y-100250000D02*
X104975000Y-100250000D01*
X173680000Y-58400000D02*
X163275000Y-58400000D01*
G04 #@! TA.AperFunction,Conductor*
G36*
X161797068Y-50520502D02*
G01*
X161843561Y-50574158D01*
X161853665Y-50644432D01*
X161824171Y-50709012D01*
X161769860Y-50745673D01*
X161752425Y-50751658D01*
X161554426Y-50858810D01*
X161554424Y-50858811D01*
X161376762Y-50997091D01*
X161224279Y-51162729D01*
X161224275Y-51162734D01*
X161101141Y-51351206D01*
X161010703Y-51557386D01*
X161010702Y-51557387D01*
X160955437Y-51775624D01*
X160955436Y-51775630D01*
X160955436Y-51775632D01*
X160936844Y-52000000D01*
X160954232Y-52209844D01*
X160955437Y-52224375D01*
X161010702Y-52442612D01*
X161010703Y-52442613D01*
X161010704Y-52442616D01*
X161066120Y-52568953D01*
X161101141Y-52648793D01*
X161224275Y-52837265D01*
X161224280Y-52837270D01*
X161367475Y-52992820D01*
X161398896Y-53056485D01*
X161390909Y-53127031D01*
X161346051Y-53182060D01*
X161318807Y-53196213D01*
X161203797Y-53239110D01*
X161203792Y-53239112D01*
X161086738Y-53326738D01*
X160999112Y-53443792D01*
X160999110Y-53443797D01*
X160948011Y-53580795D01*
X160948009Y-53580803D01*
X160941500Y-53641350D01*
X160941500Y-54866405D01*
X160921498Y-54934526D01*
X160867842Y-54981019D01*
X160797568Y-54991123D01*
X160732988Y-54961629D01*
X160726405Y-54955500D01*
X159057244Y-53286339D01*
X159047279Y-53273901D01*
X159047052Y-53274090D01*
X159042001Y-53267984D01*
X159042000Y-53267982D01*
X159035081Y-53261485D01*
X158990921Y-53220016D01*
X158969777Y-53198871D01*
X158969772Y-53198866D01*
X158964225Y-53194563D01*
X158959717Y-53190712D01*
X158925325Y-53158417D01*
X158925319Y-53158413D01*
X158907563Y-53148651D01*
X158891047Y-53137802D01*
X158875041Y-53125386D01*
X158844289Y-53112078D01*
X158831740Y-53106648D01*
X158826408Y-53104036D01*
X158785061Y-53081305D01*
X158765436Y-53076266D01*
X158746736Y-53069864D01*
X158728145Y-53061819D01*
X158728143Y-53061818D01*
X158728142Y-53061818D01*
X158681542Y-53054437D01*
X158675729Y-53053233D01*
X158630030Y-53041500D01*
X158609776Y-53041500D01*
X158590066Y-53039949D01*
X158570057Y-53036780D01*
X158570056Y-53036780D01*
X158523083Y-53041220D01*
X158517150Y-53041500D01*
X154889343Y-53041500D01*
X154821222Y-53021498D01*
X154774729Y-52967842D01*
X154764135Y-52929608D01*
X154760956Y-52901393D01*
X154743217Y-52743953D01*
X154683043Y-52571985D01*
X154683041Y-52571982D01*
X154683041Y-52571981D01*
X154586112Y-52417720D01*
X154586111Y-52417718D01*
X154457281Y-52288888D01*
X154457279Y-52288887D01*
X154303018Y-52191958D01*
X154303015Y-52191957D01*
X154131050Y-52131784D01*
X154131049Y-52131783D01*
X154131047Y-52131783D01*
X153950000Y-52111384D01*
X153949998Y-52111384D01*
X153893155Y-52117788D01*
X153863120Y-52115703D01*
X153862894Y-52117493D01*
X153855033Y-52116500D01*
X153855030Y-52116500D01*
X153834776Y-52116500D01*
X153815066Y-52114949D01*
X153795057Y-52111780D01*
X153795056Y-52111780D01*
X153748083Y-52116220D01*
X153742150Y-52116500D01*
X149197737Y-52116500D01*
X149130701Y-52097187D01*
X149003017Y-52016958D01*
X149003015Y-52016957D01*
X148831050Y-51956784D01*
X148831049Y-51956783D01*
X148831047Y-51956783D01*
X148650000Y-51936384D01*
X148468953Y-51956783D01*
X148468950Y-51956783D01*
X148468949Y-51956784D01*
X148296984Y-52016957D01*
X148296981Y-52016958D01*
X148142720Y-52113887D01*
X148142718Y-52113888D01*
X148013888Y-52242718D01*
X148013887Y-52242720D01*
X147916958Y-52396981D01*
X147916957Y-52396984D01*
X147861197Y-52556339D01*
X147856783Y-52568953D01*
X147836384Y-52750000D01*
X147846181Y-52836955D01*
X147853442Y-52901393D01*
X147841193Y-52971324D01*
X147793080Y-53023533D01*
X147728234Y-53041500D01*
X146286061Y-53041500D01*
X146270219Y-53039750D01*
X146270192Y-53040044D01*
X146262300Y-53039298D01*
X146262299Y-53039298D01*
X146192250Y-53041500D01*
X146162352Y-53041500D01*
X146162348Y-53041500D01*
X146162338Y-53041501D01*
X146155387Y-53042379D01*
X146149475Y-53042844D01*
X146102320Y-53044326D01*
X146102318Y-53044327D01*
X146082863Y-53049978D01*
X146063510Y-53053986D01*
X146043418Y-53056524D01*
X146043410Y-53056526D01*
X145999544Y-53073893D01*
X145993929Y-53075816D01*
X145948615Y-53088982D01*
X145948610Y-53088984D01*
X145931171Y-53099297D01*
X145913426Y-53107990D01*
X145894588Y-53115449D01*
X145880912Y-53125386D01*
X145856420Y-53143180D01*
X145851469Y-53146433D01*
X145810848Y-53170455D01*
X145796515Y-53184787D01*
X145781489Y-53197620D01*
X145765103Y-53209526D01*
X145765102Y-53209526D01*
X145735026Y-53245880D01*
X145731031Y-53250271D01*
X108161336Y-90819965D01*
X108148901Y-90829929D01*
X108149089Y-90830156D01*
X108142980Y-90835209D01*
X108095016Y-90886286D01*
X108073866Y-90907435D01*
X108069560Y-90912985D01*
X108065714Y-90917487D01*
X108033417Y-90951882D01*
X108033411Y-90951891D01*
X108023651Y-90969643D01*
X108012803Y-90986158D01*
X108000386Y-91002166D01*
X107981645Y-91045472D01*
X107979034Y-91050802D01*
X107956305Y-91092147D01*
X107956303Y-91092152D01*
X107951267Y-91111767D01*
X107944864Y-91130470D01*
X107936819Y-91149060D01*
X107929437Y-91195664D01*
X107928233Y-91201476D01*
X107916500Y-91247176D01*
X107916500Y-91267431D01*
X107914949Y-91287141D01*
X107911780Y-91307150D01*
X107911780Y-91307151D01*
X107916220Y-91354125D01*
X107916500Y-91360058D01*
X107916500Y-99490500D01*
X107896498Y-99558621D01*
X107842842Y-99605114D01*
X107790500Y-99616500D01*
X106378683Y-99616500D01*
X106310562Y-99596498D01*
X106264069Y-99542842D01*
X106253405Y-99503966D01*
X106251990Y-99490804D01*
X106251988Y-99490795D01*
X106200889Y-99353797D01*
X106200887Y-99353792D01*
X106113261Y-99236738D01*
X105996207Y-99149112D01*
X105996202Y-99149110D01*
X105859204Y-99098011D01*
X105859196Y-99098009D01*
X105798649Y-99091500D01*
X105798638Y-99091500D01*
X104151362Y-99091500D01*
X104151350Y-99091500D01*
X104090803Y-99098009D01*
X104090795Y-99098011D01*
X103953797Y-99149110D01*
X103953792Y-99149112D01*
X103836738Y-99236738D01*
X103749112Y-99353792D01*
X103749110Y-99353797D01*
X103698011Y-99490795D01*
X103698009Y-99490804D01*
X103696595Y-99503966D01*
X103669428Y-99569559D01*
X103611110Y-99610051D01*
X103571317Y-99616500D01*
X98428683Y-99616500D01*
X98360562Y-99596498D01*
X98314069Y-99542842D01*
X98303405Y-99503966D01*
X98301990Y-99490804D01*
X98301988Y-99490795D01*
X98250889Y-99353797D01*
X98250887Y-99353792D01*
X98163261Y-99236738D01*
X98046207Y-99149112D01*
X98046202Y-99149110D01*
X97909204Y-99098011D01*
X97909196Y-99098009D01*
X97848649Y-99091500D01*
X97848638Y-99091500D01*
X96201362Y-99091500D01*
X96201350Y-99091500D01*
X96140803Y-99098009D01*
X96140795Y-99098011D01*
X96003797Y-99149110D01*
X96003792Y-99149112D01*
X95886738Y-99236738D01*
X95799112Y-99353792D01*
X95799110Y-99353797D01*
X95748011Y-99490795D01*
X95748009Y-99490803D01*
X95741500Y-99551350D01*
X95741500Y-100873500D01*
X95721498Y-100941621D01*
X95667842Y-100988114D01*
X95615500Y-100999500D01*
X88626500Y-100999500D01*
X88558379Y-100979498D01*
X88511886Y-100925842D01*
X88500500Y-100873500D01*
X88500500Y-98000000D01*
X89394551Y-98000000D01*
X89414317Y-98251147D01*
X89473126Y-98496109D01*
X89569533Y-98728857D01*
X89701165Y-98943660D01*
X89701166Y-98943662D01*
X89864775Y-99135224D01*
X90056337Y-99298833D01*
X90056341Y-99298836D01*
X90271141Y-99430466D01*
X90503889Y-99526873D01*
X90748852Y-99585683D01*
X90901155Y-99597669D01*
X90937115Y-99600500D01*
X90937118Y-99600500D01*
X91062885Y-99600500D01*
X91096692Y-99597839D01*
X91251148Y-99585683D01*
X91496111Y-99526873D01*
X91728859Y-99430466D01*
X91943659Y-99298836D01*
X92135224Y-99135224D01*
X92298836Y-98943659D01*
X92430466Y-98728859D01*
X92526873Y-98496111D01*
X92585683Y-98251148D01*
X92605449Y-98000000D01*
X92585683Y-97748852D01*
X92526873Y-97503889D01*
X92430466Y-97271141D01*
X92298836Y-97056341D01*
X92298833Y-97056337D01*
X92135224Y-96864775D01*
X91943662Y-96701166D01*
X91943660Y-96701165D01*
X91943659Y-96701164D01*
X91728859Y-96569534D01*
X91496111Y-96473127D01*
X91496109Y-96473126D01*
X91328536Y-96432896D01*
X91251148Y-96414317D01*
X91204081Y-96410612D01*
X91062885Y-96399500D01*
X91062882Y-96399500D01*
X90937118Y-96399500D01*
X90937115Y-96399500D01*
X90748852Y-96414317D01*
X90503890Y-96473126D01*
X90271142Y-96569533D01*
X90056339Y-96701165D01*
X90056337Y-96701166D01*
X89864775Y-96864775D01*
X89701166Y-97056337D01*
X89701165Y-97056339D01*
X89569533Y-97271142D01*
X89473126Y-97503890D01*
X89414317Y-97748852D01*
X89394551Y-98000000D01*
X88500500Y-98000000D01*
X88500500Y-96004000D01*
X95742000Y-96004000D01*
X95742000Y-96448597D01*
X95748505Y-96509093D01*
X95799555Y-96645964D01*
X95799555Y-96645965D01*
X95887095Y-96762904D01*
X96004034Y-96850444D01*
X96140906Y-96901494D01*
X96201402Y-96907999D01*
X96201415Y-96908000D01*
X96771000Y-96908000D01*
X96771000Y-96004000D01*
X97279000Y-96004000D01*
X97279000Y-96908000D01*
X97848585Y-96908000D01*
X97848597Y-96907999D01*
X97909093Y-96901494D01*
X98045964Y-96850444D01*
X98045965Y-96850444D01*
X98162904Y-96762904D01*
X98250444Y-96645965D01*
X98250444Y-96645964D01*
X98301494Y-96509093D01*
X98307999Y-96448597D01*
X98308000Y-96448585D01*
X98308000Y-96004000D01*
X103692000Y-96004000D01*
X103692000Y-96448597D01*
X103698505Y-96509093D01*
X103749555Y-96645964D01*
X103749555Y-96645965D01*
X103837095Y-96762904D01*
X103954034Y-96850444D01*
X104090906Y-96901494D01*
X104151402Y-96907999D01*
X104151415Y-96908000D01*
X104721000Y-96908000D01*
X104721000Y-96004000D01*
X105229000Y-96004000D01*
X105229000Y-96908000D01*
X105798585Y-96908000D01*
X105798597Y-96907999D01*
X105859093Y-96901494D01*
X105995964Y-96850444D01*
X105995965Y-96850444D01*
X106112904Y-96762904D01*
X106200444Y-96645965D01*
X106200444Y-96645964D01*
X106251494Y-96509093D01*
X106257999Y-96448597D01*
X106258000Y-96448585D01*
X106258000Y-96004000D01*
X105229000Y-96004000D01*
X104721000Y-96004000D01*
X103692000Y-96004000D01*
X98308000Y-96004000D01*
X97279000Y-96004000D01*
X96771000Y-96004000D01*
X95742000Y-96004000D01*
X88500500Y-96004000D01*
X88500500Y-95126500D01*
X88520502Y-95058379D01*
X88574158Y-95011886D01*
X88626500Y-95000500D01*
X95616000Y-95000500D01*
X95684121Y-95020502D01*
X95730614Y-95074158D01*
X95742000Y-95126500D01*
X95742000Y-95496000D01*
X98308000Y-95496000D01*
X103692000Y-95496000D01*
X104721000Y-95496000D01*
X104721000Y-94592000D01*
X105229000Y-94592000D01*
X105229000Y-95496000D01*
X106258000Y-95496000D01*
X106258000Y-95051414D01*
X106257999Y-95051402D01*
X106251494Y-94990906D01*
X106200444Y-94854035D01*
X106200444Y-94854034D01*
X106112904Y-94737095D01*
X105995965Y-94649555D01*
X105859093Y-94598505D01*
X105798597Y-94592000D01*
X105229000Y-94592000D01*
X104721000Y-94592000D01*
X104151402Y-94592000D01*
X104090906Y-94598505D01*
X103954035Y-94649555D01*
X103954034Y-94649555D01*
X103837095Y-94737095D01*
X103749555Y-94854034D01*
X103749555Y-94854035D01*
X103698505Y-94990906D01*
X103692000Y-95051402D01*
X103692000Y-95496000D01*
X98308000Y-95496000D01*
X98308000Y-95051414D01*
X98307999Y-95051402D01*
X98300652Y-94983070D01*
X98303138Y-94982802D01*
X98306277Y-94924186D01*
X98329880Y-94883582D01*
X98331125Y-94882144D01*
X98331128Y-94882143D01*
X98348912Y-94861619D01*
X98361622Y-94848909D01*
X98382143Y-94831128D01*
X98396832Y-94808269D01*
X98407592Y-94793896D01*
X98425377Y-94773373D01*
X98436658Y-94748670D01*
X98445268Y-94732902D01*
X98459953Y-94710053D01*
X98467603Y-94683997D01*
X98473882Y-94667160D01*
X98485165Y-94642457D01*
X98489030Y-94615567D01*
X98492848Y-94598017D01*
X98500500Y-94571961D01*
X98500500Y-94428039D01*
X98500500Y-53500000D01*
X140894551Y-53500000D01*
X140914317Y-53751147D01*
X140973126Y-53996109D01*
X141069533Y-54228857D01*
X141201165Y-54443660D01*
X141201166Y-54443662D01*
X141364775Y-54635224D01*
X141515984Y-54764368D01*
X141556341Y-54798836D01*
X141771141Y-54930466D01*
X142003889Y-55026873D01*
X142248852Y-55085683D01*
X142401155Y-55097669D01*
X142437115Y-55100500D01*
X142437118Y-55100500D01*
X142562885Y-55100500D01*
X142596692Y-55097839D01*
X142751148Y-55085683D01*
X142996111Y-55026873D01*
X143228859Y-54930466D01*
X143443659Y-54798836D01*
X143635224Y-54635224D01*
X143798836Y-54443659D01*
X143930466Y-54228859D01*
X144026873Y-53996111D01*
X144085683Y-53751148D01*
X144105449Y-53500000D01*
X144085683Y-53248852D01*
X144026873Y-53003889D01*
X143930466Y-52771141D01*
X143798836Y-52556341D01*
X143798833Y-52556337D01*
X143635224Y-52364775D01*
X143443662Y-52201166D01*
X143443660Y-52201165D01*
X143443659Y-52201164D01*
X143228859Y-52069534D01*
X143177048Y-52048073D01*
X142996109Y-51973126D01*
X142828536Y-51932896D01*
X142751148Y-51914317D01*
X142704081Y-51910612D01*
X142562885Y-51899500D01*
X142562882Y-51899500D01*
X142437118Y-51899500D01*
X142437115Y-51899500D01*
X142248852Y-51914317D01*
X142003890Y-51973126D01*
X141771142Y-52069533D01*
X141556339Y-52201165D01*
X141556337Y-52201166D01*
X141364775Y-52364775D01*
X141201166Y-52556337D01*
X141201165Y-52556339D01*
X141069533Y-52771142D01*
X140973126Y-53003890D01*
X140914317Y-53248852D01*
X140894551Y-53500000D01*
X98500500Y-53500000D01*
X98500500Y-50626500D01*
X98520502Y-50558379D01*
X98574158Y-50511886D01*
X98626500Y-50500500D01*
X138964201Y-50500500D01*
X161728947Y-50500500D01*
X161797068Y-50520502D01*
G37*
G04 #@! TD.AperFunction*
G04 #@! TA.AperFunction,Conductor*
G36*
X133957842Y-66919434D02*
G01*
X134014678Y-66961981D01*
X134039018Y-67023382D01*
X134040891Y-67040000D01*
X134056783Y-67181047D01*
X134056784Y-67181049D01*
X134116957Y-67353015D01*
X134116958Y-67353017D01*
X134197187Y-67480701D01*
X134216500Y-67547737D01*
X134216500Y-92060405D01*
X134196498Y-92128526D01*
X134179595Y-92149500D01*
X127274500Y-99054595D01*
X127212188Y-99088621D01*
X127185405Y-99091500D01*
X126151350Y-99091500D01*
X126090803Y-99098009D01*
X126090795Y-99098011D01*
X125953797Y-99149110D01*
X125953792Y-99149112D01*
X125836738Y-99236738D01*
X125749112Y-99353792D01*
X125749110Y-99353797D01*
X125698011Y-99490795D01*
X125698009Y-99490804D01*
X125696595Y-99503966D01*
X125669428Y-99569559D01*
X125611110Y-99610051D01*
X125571317Y-99616500D01*
X120428683Y-99616500D01*
X120360562Y-99596498D01*
X120314069Y-99542842D01*
X120303405Y-99503966D01*
X120301990Y-99490804D01*
X120301988Y-99490795D01*
X120250889Y-99353797D01*
X120250887Y-99353792D01*
X120163261Y-99236738D01*
X120046207Y-99149112D01*
X120046202Y-99149110D01*
X119909204Y-99098011D01*
X119909196Y-99098009D01*
X119848649Y-99091500D01*
X119848638Y-99091500D01*
X118201362Y-99091500D01*
X118201350Y-99091500D01*
X118140803Y-99098009D01*
X118140795Y-99098011D01*
X118003797Y-99149110D01*
X118003792Y-99149112D01*
X117886738Y-99236738D01*
X117799112Y-99353792D01*
X117799110Y-99353797D01*
X117748011Y-99490795D01*
X117748009Y-99490803D01*
X117741500Y-99551350D01*
X117741500Y-100873500D01*
X117721498Y-100941621D01*
X117667842Y-100988114D01*
X117615500Y-100999500D01*
X108612739Y-100999500D01*
X108544618Y-100979498D01*
X108498125Y-100925842D01*
X108488021Y-100855568D01*
X108517515Y-100790988D01*
X108548602Y-100765045D01*
X108556349Y-100760463D01*
X108566362Y-100754542D01*
X108580685Y-100740218D01*
X108595724Y-100727374D01*
X108612107Y-100715472D01*
X108642202Y-100679092D01*
X108646161Y-100674742D01*
X108938661Y-100382242D01*
X108951096Y-100372281D01*
X108950909Y-100372054D01*
X108957014Y-100367003D01*
X108957015Y-100367001D01*
X108957018Y-100367000D01*
X109004984Y-100315920D01*
X109026135Y-100294770D01*
X109030445Y-100289212D01*
X109034274Y-100284729D01*
X109066586Y-100250321D01*
X109076346Y-100232565D01*
X109087195Y-100216050D01*
X109099614Y-100200041D01*
X109118363Y-100156710D01*
X109120953Y-100151423D01*
X109143695Y-100110060D01*
X109148733Y-100090434D01*
X109155137Y-100071732D01*
X109163180Y-100053147D01*
X109163179Y-100053147D01*
X109163181Y-100053145D01*
X109170561Y-100006547D01*
X109171762Y-100000740D01*
X109183500Y-99955030D01*
X109183500Y-99934775D01*
X109185051Y-99915063D01*
X109188220Y-99895057D01*
X109185629Y-99867651D01*
X109183780Y-99848080D01*
X109183500Y-99842148D01*
X109183500Y-96004000D01*
X117742000Y-96004000D01*
X117742000Y-96448597D01*
X117748505Y-96509093D01*
X117799555Y-96645964D01*
X117799555Y-96645965D01*
X117887095Y-96762904D01*
X118004034Y-96850444D01*
X118140906Y-96901494D01*
X118201402Y-96907999D01*
X118201415Y-96908000D01*
X118771000Y-96908000D01*
X118771000Y-96004000D01*
X119279000Y-96004000D01*
X119279000Y-96908000D01*
X119848585Y-96908000D01*
X119848597Y-96907999D01*
X119909093Y-96901494D01*
X120045964Y-96850444D01*
X120045965Y-96850444D01*
X120162904Y-96762904D01*
X120250444Y-96645965D01*
X120250444Y-96645964D01*
X120301494Y-96509093D01*
X120307999Y-96448597D01*
X120308000Y-96448585D01*
X120308000Y-96004000D01*
X125692000Y-96004000D01*
X125692000Y-96448597D01*
X125698505Y-96509093D01*
X125749555Y-96645964D01*
X125749555Y-96645965D01*
X125837095Y-96762904D01*
X125954034Y-96850444D01*
X126090906Y-96901494D01*
X126151402Y-96907999D01*
X126151415Y-96908000D01*
X126721000Y-96908000D01*
X126721000Y-96004000D01*
X127229000Y-96004000D01*
X127229000Y-96908000D01*
X127798585Y-96908000D01*
X127798597Y-96907999D01*
X127859093Y-96901494D01*
X127995964Y-96850444D01*
X127995965Y-96850444D01*
X128112904Y-96762904D01*
X128200444Y-96645965D01*
X128200444Y-96645964D01*
X128251494Y-96509093D01*
X128257999Y-96448597D01*
X128258000Y-96448585D01*
X128258000Y-96004000D01*
X127229000Y-96004000D01*
X126721000Y-96004000D01*
X125692000Y-96004000D01*
X120308000Y-96004000D01*
X119279000Y-96004000D01*
X118771000Y-96004000D01*
X117742000Y-96004000D01*
X109183500Y-96004000D01*
X109183500Y-95496000D01*
X117742000Y-95496000D01*
X118771000Y-95496000D01*
X118771000Y-94592000D01*
X119279000Y-94592000D01*
X119279000Y-95496000D01*
X120308000Y-95496000D01*
X125692000Y-95496000D01*
X126721000Y-95496000D01*
X126721000Y-94592000D01*
X127229000Y-94592000D01*
X127229000Y-95496000D01*
X128258000Y-95496000D01*
X128258000Y-95051414D01*
X128257999Y-95051402D01*
X128251494Y-94990906D01*
X128200444Y-94854035D01*
X128200444Y-94854034D01*
X128112904Y-94737095D01*
X127995965Y-94649555D01*
X127859093Y-94598505D01*
X127798597Y-94592000D01*
X127229000Y-94592000D01*
X126721000Y-94592000D01*
X126151402Y-94592000D01*
X126090906Y-94598505D01*
X125954035Y-94649555D01*
X125954034Y-94649555D01*
X125837095Y-94737095D01*
X125749555Y-94854034D01*
X125749555Y-94854035D01*
X125698505Y-94990906D01*
X125692000Y-95051402D01*
X125692000Y-95496000D01*
X120308000Y-95496000D01*
X120308000Y-95051414D01*
X120307999Y-95051402D01*
X120301494Y-94990906D01*
X120250444Y-94854035D01*
X120250444Y-94854034D01*
X120162904Y-94737095D01*
X120045965Y-94649555D01*
X119909093Y-94598505D01*
X119848597Y-94592000D01*
X119279000Y-94592000D01*
X118771000Y-94592000D01*
X118201402Y-94592000D01*
X118140906Y-94598505D01*
X118004035Y-94649555D01*
X118004034Y-94649555D01*
X117887095Y-94737095D01*
X117799555Y-94854034D01*
X117799555Y-94854035D01*
X117748505Y-94990906D01*
X117742000Y-95051402D01*
X117742000Y-95496000D01*
X109183500Y-95496000D01*
X109183500Y-91641801D01*
X109203502Y-91573680D01*
X109220400Y-91552711D01*
X133824717Y-66948393D01*
X133887027Y-66914369D01*
X133957842Y-66919434D01*
G37*
G04 #@! TD.AperFunction*
G04 #@! TA.AperFunction,Conductor*
G36*
X136859533Y-64017745D02*
G01*
X136916368Y-64060292D01*
X136941179Y-64126812D01*
X136941500Y-64135801D01*
X136941500Y-68827262D01*
X136922187Y-68894298D01*
X136841958Y-69021981D01*
X136841957Y-69021984D01*
X136821657Y-69080000D01*
X136781783Y-69193953D01*
X136761384Y-69375000D01*
X136781783Y-69556047D01*
X136781783Y-69556049D01*
X136781784Y-69556050D01*
X136841957Y-69728015D01*
X136841958Y-69728018D01*
X136938887Y-69882279D01*
X136938888Y-69882281D01*
X137067718Y-70011111D01*
X137067720Y-70011112D01*
X137221981Y-70108041D01*
X137221982Y-70108041D01*
X137221985Y-70108043D01*
X137393953Y-70168217D01*
X137575000Y-70188616D01*
X137575004Y-70188615D01*
X137579607Y-70189134D01*
X137645060Y-70216637D01*
X137685253Y-70275161D01*
X137691500Y-70314342D01*
X137691500Y-70901146D01*
X137689751Y-70916988D01*
X137690044Y-70917016D01*
X137689298Y-70924907D01*
X137691500Y-70994957D01*
X137691500Y-71024851D01*
X137691501Y-71024872D01*
X137692378Y-71031820D01*
X137692844Y-71037732D01*
X137694326Y-71084888D01*
X137694327Y-71084893D01*
X137699977Y-71104339D01*
X137703986Y-71123697D01*
X137706525Y-71143793D01*
X137706526Y-71143799D01*
X137723893Y-71187662D01*
X137725816Y-71193279D01*
X137738982Y-71238593D01*
X137749294Y-71256031D01*
X137757988Y-71273779D01*
X137765444Y-71292609D01*
X137765450Y-71292620D01*
X137793177Y-71330783D01*
X137796437Y-71335746D01*
X137820460Y-71376365D01*
X137834779Y-71390684D01*
X137847617Y-71405714D01*
X137857156Y-71418843D01*
X137859528Y-71422107D01*
X137887794Y-71445491D01*
X137895886Y-71452185D01*
X137900267Y-71456171D01*
X139601186Y-73157091D01*
X140150132Y-73706037D01*
X140184158Y-73768349D01*
X140183182Y-73826062D01*
X140155436Y-73935628D01*
X140136844Y-74160000D01*
X140155437Y-74384375D01*
X140210702Y-74602612D01*
X140210703Y-74602613D01*
X140301141Y-74808793D01*
X140424275Y-74997265D01*
X140424279Y-74997270D01*
X140576762Y-75162908D01*
X140631331Y-75205381D01*
X140754424Y-75301189D01*
X140787680Y-75319186D01*
X140838071Y-75369200D01*
X140853423Y-75438516D01*
X140828862Y-75505129D01*
X140787680Y-75540813D01*
X140754426Y-75558810D01*
X140754424Y-75558811D01*
X140576762Y-75697091D01*
X140424279Y-75862729D01*
X140424275Y-75862734D01*
X140301141Y-76051206D01*
X140210703Y-76257386D01*
X140210702Y-76257387D01*
X140155437Y-76475624D01*
X140136844Y-76700000D01*
X140155437Y-76924375D01*
X140210702Y-77142612D01*
X140210703Y-77142613D01*
X140301141Y-77348793D01*
X140424275Y-77537265D01*
X140424279Y-77537270D01*
X140576762Y-77702908D01*
X140631331Y-77745381D01*
X140754424Y-77841189D01*
X140787680Y-77859186D01*
X140838071Y-77909200D01*
X140853423Y-77978516D01*
X140828862Y-78045129D01*
X140787680Y-78080813D01*
X140754426Y-78098810D01*
X140754424Y-78098811D01*
X140576762Y-78237091D01*
X140424279Y-78402729D01*
X140424275Y-78402734D01*
X140301141Y-78591206D01*
X140210703Y-78797386D01*
X140210702Y-78797387D01*
X140155437Y-79015624D01*
X140136844Y-79240000D01*
X140155437Y-79464375D01*
X140210702Y-79682612D01*
X140210703Y-79682613D01*
X140301141Y-79888793D01*
X140424275Y-80077265D01*
X140424279Y-80077270D01*
X140576762Y-80242908D01*
X140631331Y-80285381D01*
X140754424Y-80381189D01*
X140787680Y-80399186D01*
X140838071Y-80449200D01*
X140853423Y-80518516D01*
X140828862Y-80585129D01*
X140787680Y-80620813D01*
X140754426Y-80638810D01*
X140754424Y-80638811D01*
X140576762Y-80777091D01*
X140424279Y-80942729D01*
X140424275Y-80942734D01*
X140301141Y-81131206D01*
X140210703Y-81337386D01*
X140210702Y-81337387D01*
X140155437Y-81555624D01*
X140136844Y-81780000D01*
X140155437Y-82004375D01*
X140210702Y-82222612D01*
X140210703Y-82222613D01*
X140301141Y-82428793D01*
X140424275Y-82617265D01*
X140424279Y-82617270D01*
X140576762Y-82782908D01*
X140631331Y-82825381D01*
X140754424Y-82921189D01*
X140952426Y-83028342D01*
X140952427Y-83028342D01*
X140952428Y-83028343D01*
X141064227Y-83066723D01*
X141165365Y-83101444D01*
X141387431Y-83138500D01*
X141387435Y-83138500D01*
X141612565Y-83138500D01*
X141612569Y-83138500D01*
X141834635Y-83101444D01*
X142047574Y-83028342D01*
X142245576Y-82921189D01*
X142423240Y-82782906D01*
X142575722Y-82617268D01*
X142698860Y-82428791D01*
X142789296Y-82222616D01*
X142844564Y-82004368D01*
X142863156Y-81780000D01*
X142844564Y-81555632D01*
X142789296Y-81337384D01*
X142698860Y-81131209D01*
X142692140Y-81120924D01*
X142575724Y-80942734D01*
X142575720Y-80942729D01*
X142423237Y-80777091D01*
X142341382Y-80713381D01*
X142245576Y-80638811D01*
X142212319Y-80620813D01*
X142161929Y-80570802D01*
X142146576Y-80501485D01*
X142171136Y-80434872D01*
X142212320Y-80399186D01*
X142245576Y-80381189D01*
X142423240Y-80242906D01*
X142575722Y-80077268D01*
X142698860Y-79888791D01*
X142789296Y-79682616D01*
X142844564Y-79464368D01*
X142863156Y-79240000D01*
X142844564Y-79015632D01*
X142789296Y-78797384D01*
X142698860Y-78591209D01*
X142692140Y-78580924D01*
X142575724Y-78402734D01*
X142575720Y-78402729D01*
X142423237Y-78237091D01*
X142341382Y-78173381D01*
X142245576Y-78098811D01*
X142212319Y-78080813D01*
X142161929Y-78030802D01*
X142146576Y-77961485D01*
X142171136Y-77894872D01*
X142212320Y-77859186D01*
X142245576Y-77841189D01*
X142423240Y-77702906D01*
X142575722Y-77537268D01*
X142698860Y-77348791D01*
X142789296Y-77142616D01*
X142844564Y-76924368D01*
X142863156Y-76700000D01*
X142844564Y-76475632D01*
X142789296Y-76257384D01*
X142698860Y-76051209D01*
X142692140Y-76040924D01*
X142575724Y-75862734D01*
X142575720Y-75862729D01*
X142423237Y-75697091D01*
X142341382Y-75633381D01*
X142245576Y-75558811D01*
X142212319Y-75540813D01*
X142161929Y-75490802D01*
X142146576Y-75421485D01*
X142171136Y-75354872D01*
X142212320Y-75319186D01*
X142245576Y-75301189D01*
X142423240Y-75162906D01*
X142575722Y-74997268D01*
X142698860Y-74808791D01*
X142789296Y-74602616D01*
X142844564Y-74384368D01*
X142863156Y-74160000D01*
X142844564Y-73935632D01*
X142789296Y-73717384D01*
X142698860Y-73511209D01*
X142692140Y-73500924D01*
X142575724Y-73322734D01*
X142575720Y-73322729D01*
X142423237Y-73157091D01*
X142341382Y-73093381D01*
X142245576Y-73018811D01*
X142212319Y-73000813D01*
X142161929Y-72950802D01*
X142146576Y-72881485D01*
X142171136Y-72814872D01*
X142212320Y-72779186D01*
X142245576Y-72761189D01*
X142423240Y-72622906D01*
X142575722Y-72457268D01*
X142698860Y-72268791D01*
X142789296Y-72062616D01*
X142844564Y-71844368D01*
X142863156Y-71620000D01*
X142844564Y-71395632D01*
X142816817Y-71286062D01*
X142819484Y-71215116D01*
X142849864Y-71166038D01*
X144784406Y-69231496D01*
X144846717Y-69197472D01*
X144917533Y-69202537D01*
X144974368Y-69245084D01*
X144999179Y-69311604D01*
X144999500Y-69320593D01*
X144999500Y-97198888D01*
X144979498Y-97267009D01*
X144952212Y-97297277D01*
X142654779Y-99135224D01*
X140388013Y-100948638D01*
X140358949Y-100971889D01*
X140293260Y-100998825D01*
X140280237Y-100999500D01*
X128384500Y-100999500D01*
X128316379Y-100979498D01*
X128269886Y-100925842D01*
X128258500Y-100873500D01*
X128258500Y-99914594D01*
X128278502Y-99846473D01*
X128295405Y-99825499D01*
X130120904Y-98000000D01*
X132394551Y-98000000D01*
X132414317Y-98251147D01*
X132473126Y-98496109D01*
X132569533Y-98728857D01*
X132701165Y-98943660D01*
X132701166Y-98943662D01*
X132864775Y-99135224D01*
X133056337Y-99298833D01*
X133056341Y-99298836D01*
X133271141Y-99430466D01*
X133503889Y-99526873D01*
X133748852Y-99585683D01*
X133901155Y-99597669D01*
X133937115Y-99600500D01*
X133937118Y-99600500D01*
X134062885Y-99600500D01*
X134096692Y-99597839D01*
X134251148Y-99585683D01*
X134496111Y-99526873D01*
X134728859Y-99430466D01*
X134943659Y-99298836D01*
X135135224Y-99135224D01*
X135298836Y-98943659D01*
X135430466Y-98728859D01*
X135526873Y-98496111D01*
X135585683Y-98251148D01*
X135605449Y-98000000D01*
X135585683Y-97748852D01*
X135526873Y-97503889D01*
X135430466Y-97271141D01*
X135298836Y-97056341D01*
X135298833Y-97056337D01*
X135135224Y-96864775D01*
X134943662Y-96701166D01*
X134943660Y-96701165D01*
X134943659Y-96701164D01*
X134728859Y-96569534D01*
X134496111Y-96473127D01*
X134496109Y-96473126D01*
X134328536Y-96432896D01*
X134251148Y-96414317D01*
X134204081Y-96410612D01*
X134062885Y-96399500D01*
X134062882Y-96399500D01*
X133937118Y-96399500D01*
X133937115Y-96399500D01*
X133748852Y-96414317D01*
X133503890Y-96473126D01*
X133271142Y-96569533D01*
X133056339Y-96701165D01*
X133056337Y-96701166D01*
X132864775Y-96864775D01*
X132701166Y-97056337D01*
X132701165Y-97056339D01*
X132569533Y-97271142D01*
X132473126Y-97503890D01*
X132414317Y-97748852D01*
X132394551Y-98000000D01*
X130120904Y-98000000D01*
X131721404Y-96399500D01*
X135238660Y-92882243D01*
X135251098Y-92872280D01*
X135250910Y-92872053D01*
X135257013Y-92867002D01*
X135257018Y-92867000D01*
X135304983Y-92815921D01*
X135326135Y-92794770D01*
X135330445Y-92789212D01*
X135334274Y-92784729D01*
X135366586Y-92750321D01*
X135376346Y-92732565D01*
X135387195Y-92716050D01*
X135399614Y-92700041D01*
X135418363Y-92656710D01*
X135420953Y-92651423D01*
X135443695Y-92610060D01*
X135448733Y-92590434D01*
X135455137Y-92571732D01*
X135463180Y-92553147D01*
X135463179Y-92553147D01*
X135463181Y-92553145D01*
X135470561Y-92506547D01*
X135471762Y-92500740D01*
X135483500Y-92455030D01*
X135483500Y-92434775D01*
X135485051Y-92415063D01*
X135488220Y-92395057D01*
X135485629Y-92367651D01*
X135483780Y-92348080D01*
X135483500Y-92342148D01*
X135483500Y-67547737D01*
X135502813Y-67480701D01*
X135539817Y-67421807D01*
X135583043Y-67353015D01*
X135643217Y-67181047D01*
X135663616Y-67000000D01*
X135643217Y-66818953D01*
X135583043Y-66646985D01*
X135583041Y-66646982D01*
X135583041Y-66646981D01*
X135486112Y-66492720D01*
X135486111Y-66492718D01*
X135357281Y-66363888D01*
X135357279Y-66363887D01*
X135203018Y-66266958D01*
X135203015Y-66266957D01*
X135188909Y-66262021D01*
X135031047Y-66206783D01*
X134935682Y-66196038D01*
X134873382Y-66189018D01*
X134807929Y-66161514D01*
X134767736Y-66102990D01*
X134765565Y-66032026D01*
X134798393Y-65974717D01*
X136726407Y-64046704D01*
X136788717Y-64012680D01*
X136859533Y-64017745D01*
G37*
G04 #@! TD.AperFunction*
G04 #@! TA.AperFunction,Conductor*
G36*
X157403527Y-55228502D02*
G01*
X157424501Y-55245405D01*
X159000815Y-56821719D01*
X159034841Y-56884031D01*
X159029776Y-56954846D01*
X158987229Y-57011682D01*
X158953336Y-57029743D01*
X158846981Y-57066958D01*
X158719299Y-57147187D01*
X158652263Y-57166500D01*
X149133854Y-57166500D01*
X149118012Y-57164750D01*
X149117985Y-57165044D01*
X149110092Y-57164297D01*
X149040029Y-57166500D01*
X149010144Y-57166500D01*
X149010140Y-57166500D01*
X149010129Y-57166501D01*
X149003190Y-57167377D01*
X148997277Y-57167843D01*
X148950111Y-57169325D01*
X148930650Y-57174979D01*
X148911304Y-57178985D01*
X148891204Y-57181525D01*
X148891203Y-57181525D01*
X148847335Y-57198893D01*
X148841720Y-57200815D01*
X148796413Y-57213978D01*
X148796404Y-57213982D01*
X148778962Y-57224297D01*
X148761215Y-57232991D01*
X148742383Y-57240447D01*
X148742381Y-57240448D01*
X148704214Y-57268178D01*
X148699254Y-57271436D01*
X148658636Y-57295459D01*
X148658633Y-57295461D01*
X148644312Y-57309783D01*
X148629283Y-57322619D01*
X148612893Y-57334527D01*
X148582808Y-57370892D01*
X148578812Y-57375283D01*
X144486336Y-61467757D01*
X144473901Y-61477721D01*
X144474089Y-61477948D01*
X144467980Y-61483001D01*
X144420016Y-61534078D01*
X144398866Y-61555227D01*
X144394560Y-61560777D01*
X144390714Y-61565279D01*
X144358417Y-61599674D01*
X144358411Y-61599683D01*
X144348651Y-61617435D01*
X144337803Y-61633950D01*
X144325386Y-61649958D01*
X144306645Y-61693264D01*
X144304034Y-61698594D01*
X144281305Y-61739939D01*
X144281303Y-61739944D01*
X144276267Y-61759559D01*
X144269864Y-61778262D01*
X144261819Y-61796852D01*
X144254437Y-61843456D01*
X144253233Y-61849268D01*
X144241500Y-61894968D01*
X144241500Y-61915223D01*
X144239949Y-61934933D01*
X144236780Y-61954942D01*
X144236780Y-61954943D01*
X144241220Y-62001917D01*
X144241500Y-62007850D01*
X144241500Y-67930405D01*
X144221498Y-67998526D01*
X144204595Y-68019500D01*
X143076870Y-69147224D01*
X143014558Y-69181250D01*
X142943742Y-69176185D01*
X142886907Y-69133638D01*
X142862206Y-69068536D01*
X142844564Y-68855632D01*
X142789296Y-68637384D01*
X142698860Y-68431209D01*
X142591550Y-68266958D01*
X142575724Y-68242734D01*
X142575720Y-68242729D01*
X142423237Y-68077091D01*
X142301829Y-67982595D01*
X142245576Y-67938811D01*
X142211792Y-67920528D01*
X142161402Y-67870516D01*
X142146050Y-67801199D01*
X142170610Y-67734586D01*
X142211793Y-67698901D01*
X142245300Y-67680767D01*
X142245301Y-67680767D01*
X142422902Y-67542534D01*
X142575325Y-67376958D01*
X142698419Y-67188548D01*
X142788820Y-66982456D01*
X142788823Y-66982449D01*
X142836544Y-66794000D01*
X141931116Y-66794000D01*
X141959493Y-66749844D01*
X142000000Y-66611889D01*
X142000000Y-66468111D01*
X141959493Y-66330156D01*
X141931116Y-66286000D01*
X142836544Y-66286000D01*
X142836544Y-66285999D01*
X142788823Y-66097550D01*
X142788820Y-66097543D01*
X142698419Y-65891451D01*
X142575325Y-65703041D01*
X142432018Y-65547367D01*
X142400598Y-65483702D01*
X142408585Y-65413156D01*
X142453444Y-65358127D01*
X142480679Y-65343977D01*
X142596204Y-65300889D01*
X142713261Y-65213261D01*
X142800889Y-65096204D01*
X142851989Y-64959201D01*
X142858500Y-64898638D01*
X142858500Y-63101362D01*
X142858499Y-63101350D01*
X142851990Y-63040803D01*
X142851988Y-63040795D01*
X142800889Y-62903797D01*
X142800887Y-62903792D01*
X142713261Y-62786738D01*
X142596207Y-62699112D01*
X142596202Y-62699110D01*
X142459204Y-62648011D01*
X142459196Y-62648009D01*
X142398649Y-62641500D01*
X142398638Y-62641500D01*
X140601362Y-62641500D01*
X140601350Y-62641500D01*
X140540803Y-62648009D01*
X140540795Y-62648011D01*
X140403797Y-62699110D01*
X140403792Y-62699112D01*
X140286738Y-62786738D01*
X140199112Y-62903792D01*
X140199110Y-62903797D01*
X140148011Y-63040795D01*
X140148009Y-63040803D01*
X140141500Y-63101350D01*
X140141500Y-64898649D01*
X140148009Y-64959196D01*
X140148011Y-64959204D01*
X140199110Y-65096202D01*
X140199112Y-65096207D01*
X140286738Y-65213261D01*
X140403792Y-65300887D01*
X140403796Y-65300889D01*
X140519312Y-65343975D01*
X140576148Y-65386522D01*
X140600958Y-65453042D01*
X140585866Y-65522416D01*
X140567981Y-65547367D01*
X140424674Y-65703041D01*
X140301580Y-65891451D01*
X140211179Y-66097543D01*
X140211176Y-66097550D01*
X140163455Y-66285999D01*
X140163456Y-66286000D01*
X141068884Y-66286000D01*
X141040507Y-66330156D01*
X141000000Y-66468111D01*
X141000000Y-66611889D01*
X141040507Y-66749844D01*
X141068884Y-66794000D01*
X140163455Y-66794000D01*
X140211176Y-66982449D01*
X140211179Y-66982456D01*
X140301580Y-67188548D01*
X140424674Y-67376958D01*
X140577097Y-67542534D01*
X140754698Y-67680767D01*
X140754704Y-67680771D01*
X140788207Y-67698902D01*
X140838597Y-67748915D01*
X140853949Y-67818232D01*
X140829388Y-67884845D01*
X140788207Y-67920528D01*
X140754430Y-67938807D01*
X140754424Y-67938811D01*
X140576762Y-68077091D01*
X140424278Y-68242732D01*
X140380711Y-68309416D01*
X140326707Y-68355504D01*
X140275228Y-68366500D01*
X139797737Y-68366500D01*
X139730701Y-68347187D01*
X139603017Y-68266958D01*
X139603015Y-68266957D01*
X139431050Y-68206784D01*
X139431049Y-68206783D01*
X139431047Y-68206783D01*
X139250000Y-68186384D01*
X139249999Y-68186384D01*
X139193144Y-68192790D01*
X139098606Y-68203441D01*
X139028676Y-68191193D01*
X138976467Y-68143080D01*
X138958500Y-68078234D01*
X138958500Y-63139594D01*
X138978502Y-63071473D01*
X138995405Y-63050499D01*
X146800500Y-55245405D01*
X146862812Y-55211379D01*
X146889595Y-55208500D01*
X157335406Y-55208500D01*
X157403527Y-55228502D01*
G37*
G04 #@! TD.AperFunction*
G04 #@! TA.AperFunction,Conductor*
G36*
X191791621Y-50520502D02*
G01*
X191838114Y-50574158D01*
X191849500Y-50626500D01*
X191849500Y-51926533D01*
X191829498Y-51994654D01*
X191821983Y-52001165D01*
X191846915Y-52048073D01*
X191849500Y-52073466D01*
X191849500Y-54466533D01*
X191829498Y-54534654D01*
X191821983Y-54541165D01*
X191846915Y-54588073D01*
X191849500Y-54613466D01*
X191849500Y-59373500D01*
X191829498Y-59441621D01*
X191775842Y-59488114D01*
X191723500Y-59499500D01*
X189450594Y-59499500D01*
X189382473Y-59479498D01*
X189335980Y-59425842D01*
X189325876Y-59355568D01*
X189355370Y-59290988D01*
X189361498Y-59284405D01*
X189453659Y-59192243D01*
X189466093Y-59182284D01*
X189465905Y-59182057D01*
X189472009Y-59177005D01*
X189472018Y-59177000D01*
X189519999Y-59125904D01*
X189541134Y-59104770D01*
X189545429Y-59099232D01*
X189549271Y-59094731D01*
X189581586Y-59060321D01*
X189591345Y-59042567D01*
X189602197Y-59026046D01*
X189614613Y-59010041D01*
X189633347Y-58966748D01*
X189635961Y-58961412D01*
X189658694Y-58920061D01*
X189658695Y-58920060D01*
X189663733Y-58900435D01*
X189670138Y-58881730D01*
X189678181Y-58863145D01*
X189685563Y-58816525D01*
X189686761Y-58810744D01*
X189698500Y-58765030D01*
X189698500Y-58744769D01*
X189700051Y-58725058D01*
X189703219Y-58705056D01*
X189698780Y-58658089D01*
X189698500Y-58652157D01*
X189698500Y-55966900D01*
X189718502Y-55898779D01*
X189772158Y-55852286D01*
X189842432Y-55842182D01*
X189865406Y-55847726D01*
X189905365Y-55861444D01*
X190127431Y-55898500D01*
X190127435Y-55898500D01*
X190352565Y-55898500D01*
X190352569Y-55898500D01*
X190574635Y-55861444D01*
X190787574Y-55788342D01*
X190985576Y-55681189D01*
X191163240Y-55542906D01*
X191315722Y-55377268D01*
X191438860Y-55188791D01*
X191529296Y-54982616D01*
X191584564Y-54764368D01*
X191597930Y-54603059D01*
X191623490Y-54536824D01*
X191624493Y-54536090D01*
X191602604Y-54502031D01*
X191597930Y-54476938D01*
X191597068Y-54466533D01*
X191584564Y-54315632D01*
X191529296Y-54097384D01*
X191438860Y-53891209D01*
X191421500Y-53864637D01*
X191315724Y-53702734D01*
X191315720Y-53702729D01*
X191163237Y-53537091D01*
X191043367Y-53443792D01*
X190985576Y-53398811D01*
X190952319Y-53380813D01*
X190901929Y-53330802D01*
X190886576Y-53261485D01*
X190911136Y-53194872D01*
X190952320Y-53159186D01*
X190953741Y-53158417D01*
X190985576Y-53141189D01*
X191163240Y-53002906D01*
X191315722Y-52837268D01*
X191315927Y-52836955D01*
X191372737Y-52750000D01*
X191438860Y-52648791D01*
X191529296Y-52442616D01*
X191584564Y-52224368D01*
X191597930Y-52063059D01*
X191623490Y-51996824D01*
X191624493Y-51996090D01*
X191602604Y-51962031D01*
X191597930Y-51936938D01*
X191584564Y-51775632D01*
X191529296Y-51557384D01*
X191438860Y-51351209D01*
X191421597Y-51324786D01*
X191315724Y-51162734D01*
X191315720Y-51162729D01*
X191199570Y-51036559D01*
X191163240Y-50997094D01*
X191163239Y-50997093D01*
X191163237Y-50997091D01*
X191060678Y-50917266D01*
X190985576Y-50858811D01*
X190787574Y-50751658D01*
X190770139Y-50745672D01*
X190712205Y-50704635D01*
X190685654Y-50638791D01*
X190698916Y-50569044D01*
X190747780Y-50517539D01*
X190811053Y-50500500D01*
X191414201Y-50500500D01*
X191723500Y-50500500D01*
X191791621Y-50520502D01*
G37*
G04 #@! TD.AperFunction*
G04 #@! TA.AperFunction,Conductor*
G36*
X188381375Y-55799668D02*
G01*
X188423715Y-55856657D01*
X188431500Y-55900261D01*
X188431500Y-58370405D01*
X188411498Y-58438526D01*
X188394595Y-58459500D01*
X188224500Y-58629595D01*
X188162188Y-58663621D01*
X188135405Y-58666500D01*
X187086912Y-58666500D01*
X187018791Y-58646498D01*
X186972298Y-58592842D01*
X186962194Y-58522568D01*
X186964871Y-58509162D01*
X186968500Y-58495030D01*
X186968500Y-58474775D01*
X186970051Y-58455063D01*
X186973220Y-58435057D01*
X186970629Y-58407651D01*
X186968780Y-58388080D01*
X186968500Y-58382148D01*
X186968500Y-55900261D01*
X186988502Y-55832140D01*
X187042158Y-55785647D01*
X187112432Y-55775543D01*
X187147292Y-55787075D01*
X187147655Y-55786249D01*
X187152428Y-55788343D01*
X187264227Y-55826723D01*
X187365365Y-55861444D01*
X187587431Y-55898500D01*
X187587435Y-55898500D01*
X187812565Y-55898500D01*
X187812569Y-55898500D01*
X188034635Y-55861444D01*
X188247574Y-55788342D01*
X188247577Y-55788340D01*
X188252345Y-55786249D01*
X188253045Y-55787845D01*
X188314945Y-55774615D01*
X188381375Y-55799668D01*
G37*
G04 #@! TD.AperFunction*
G04 #@! TA.AperFunction,Conductor*
G36*
X183973225Y-55215669D02*
G01*
X183995480Y-55241353D01*
X183998128Y-55245405D01*
X184084275Y-55377265D01*
X184084279Y-55377270D01*
X184236762Y-55542908D01*
X184291331Y-55585381D01*
X184414424Y-55681189D01*
X184612426Y-55788342D01*
X184612427Y-55788342D01*
X184612428Y-55788343D01*
X184724227Y-55826723D01*
X184825365Y-55861444D01*
X185047431Y-55898500D01*
X185047435Y-55898500D01*
X185272565Y-55898500D01*
X185272569Y-55898500D01*
X185494635Y-55861444D01*
X185534588Y-55847727D01*
X185605510Y-55844526D01*
X185666906Y-55880177D01*
X185699282Y-55943362D01*
X185701500Y-55966900D01*
X185701500Y-58090500D01*
X185681498Y-58158621D01*
X185627842Y-58205114D01*
X185575500Y-58216500D01*
X175063594Y-58216500D01*
X174995473Y-58196498D01*
X174948980Y-58142842D01*
X174938876Y-58072568D01*
X174968370Y-58007988D01*
X174974499Y-58001405D01*
X175246309Y-57729595D01*
X177082205Y-55893697D01*
X177144515Y-55859674D01*
X177200218Y-55860616D01*
X177200224Y-55860586D01*
X177200430Y-55860620D01*
X177202236Y-55860651D01*
X177205356Y-55861441D01*
X177205365Y-55861444D01*
X177427431Y-55898500D01*
X177427435Y-55898500D01*
X177652565Y-55898500D01*
X177652569Y-55898500D01*
X177874635Y-55861444D01*
X178087574Y-55788342D01*
X178285576Y-55681189D01*
X178463240Y-55542906D01*
X178615722Y-55377268D01*
X178704518Y-55241354D01*
X178758520Y-55195268D01*
X178828868Y-55185692D01*
X178893225Y-55215669D01*
X178915480Y-55241353D01*
X178918128Y-55245405D01*
X179004275Y-55377265D01*
X179004279Y-55377270D01*
X179156762Y-55542908D01*
X179211331Y-55585381D01*
X179334424Y-55681189D01*
X179532426Y-55788342D01*
X179532427Y-55788342D01*
X179532428Y-55788343D01*
X179644227Y-55826723D01*
X179745365Y-55861444D01*
X179967431Y-55898500D01*
X179967435Y-55898500D01*
X180192565Y-55898500D01*
X180192569Y-55898500D01*
X180414635Y-55861444D01*
X180627574Y-55788342D01*
X180825576Y-55681189D01*
X181003240Y-55542906D01*
X181155722Y-55377268D01*
X181244518Y-55241354D01*
X181298520Y-55195268D01*
X181368868Y-55185692D01*
X181433225Y-55215669D01*
X181455480Y-55241353D01*
X181458128Y-55245405D01*
X181544275Y-55377265D01*
X181544279Y-55377270D01*
X181696762Y-55542908D01*
X181751331Y-55585381D01*
X181874424Y-55681189D01*
X182072426Y-55788342D01*
X182072427Y-55788342D01*
X182072428Y-55788343D01*
X182184227Y-55826723D01*
X182285365Y-55861444D01*
X182507431Y-55898500D01*
X182507435Y-55898500D01*
X182732565Y-55898500D01*
X182732569Y-55898500D01*
X182954635Y-55861444D01*
X183167574Y-55788342D01*
X183365576Y-55681189D01*
X183543240Y-55542906D01*
X183695722Y-55377268D01*
X183784518Y-55241354D01*
X183838520Y-55195268D01*
X183908868Y-55185692D01*
X183973225Y-55215669D01*
G37*
G04 #@! TD.AperFunction*
G04 #@! TA.AperFunction,Conductor*
G36*
X173813225Y-55215669D02*
G01*
X173835480Y-55241353D01*
X173838128Y-55245405D01*
X173924275Y-55377265D01*
X173924279Y-55377270D01*
X174076762Y-55542908D01*
X174131331Y-55585381D01*
X174254424Y-55681189D01*
X174452426Y-55788342D01*
X174452427Y-55788342D01*
X174452428Y-55788343D01*
X174564227Y-55826723D01*
X174665365Y-55861444D01*
X174887431Y-55898500D01*
X174887435Y-55898500D01*
X174981404Y-55898500D01*
X175049525Y-55918502D01*
X175096018Y-55972158D01*
X175106122Y-56042432D01*
X175076628Y-56107012D01*
X175070499Y-56113595D01*
X173454500Y-57729595D01*
X173392188Y-57763620D01*
X173365405Y-57766500D01*
X163589594Y-57766500D01*
X163521473Y-57746498D01*
X163500499Y-57729595D01*
X161884499Y-56113595D01*
X161850473Y-56051283D01*
X161855538Y-55980468D01*
X161898085Y-55923632D01*
X161964605Y-55898821D01*
X161973594Y-55898500D01*
X163198632Y-55898500D01*
X163198638Y-55898500D01*
X163198645Y-55898499D01*
X163198649Y-55898499D01*
X163259196Y-55891990D01*
X163259199Y-55891989D01*
X163259201Y-55891989D01*
X163396204Y-55840889D01*
X163399782Y-55838211D01*
X163513261Y-55753261D01*
X163600886Y-55636208D01*
X163600885Y-55636208D01*
X163600889Y-55636204D01*
X163644999Y-55517939D01*
X163687545Y-55461107D01*
X163754066Y-55436296D01*
X163823440Y-55451388D01*
X163855753Y-55476635D01*
X163893779Y-55517942D01*
X163916762Y-55542908D01*
X163971331Y-55585381D01*
X164094424Y-55681189D01*
X164292426Y-55788342D01*
X164292427Y-55788342D01*
X164292428Y-55788343D01*
X164404227Y-55826723D01*
X164505365Y-55861444D01*
X164727431Y-55898500D01*
X164727435Y-55898500D01*
X164952565Y-55898500D01*
X164952569Y-55898500D01*
X165174635Y-55861444D01*
X165387574Y-55788342D01*
X165585576Y-55681189D01*
X165763240Y-55542906D01*
X165915722Y-55377268D01*
X166004518Y-55241354D01*
X166058520Y-55195268D01*
X166128868Y-55185692D01*
X166193225Y-55215669D01*
X166215480Y-55241353D01*
X166218128Y-55245405D01*
X166304275Y-55377265D01*
X166304279Y-55377270D01*
X166456762Y-55542908D01*
X166511331Y-55585381D01*
X166634424Y-55681189D01*
X166832426Y-55788342D01*
X166832427Y-55788342D01*
X166832428Y-55788343D01*
X166944227Y-55826723D01*
X167045365Y-55861444D01*
X167267431Y-55898500D01*
X167267435Y-55898500D01*
X167492565Y-55898500D01*
X167492569Y-55898500D01*
X167714635Y-55861444D01*
X167927574Y-55788342D01*
X168125576Y-55681189D01*
X168303240Y-55542906D01*
X168455722Y-55377268D01*
X168544518Y-55241354D01*
X168598520Y-55195268D01*
X168668868Y-55185692D01*
X168733225Y-55215669D01*
X168755480Y-55241353D01*
X168758128Y-55245405D01*
X168844275Y-55377265D01*
X168844279Y-55377270D01*
X168996762Y-55542908D01*
X169051331Y-55585381D01*
X169174424Y-55681189D01*
X169372426Y-55788342D01*
X169372427Y-55788342D01*
X169372428Y-55788343D01*
X169484227Y-55826723D01*
X169585365Y-55861444D01*
X169807431Y-55898500D01*
X169807435Y-55898500D01*
X170032565Y-55898500D01*
X170032569Y-55898500D01*
X170254635Y-55861444D01*
X170467574Y-55788342D01*
X170665576Y-55681189D01*
X170843240Y-55542906D01*
X170995722Y-55377268D01*
X171084518Y-55241354D01*
X171138520Y-55195268D01*
X171208868Y-55185692D01*
X171273225Y-55215669D01*
X171295480Y-55241353D01*
X171298128Y-55245405D01*
X171384275Y-55377265D01*
X171384279Y-55377270D01*
X171536762Y-55542908D01*
X171591331Y-55585381D01*
X171714424Y-55681189D01*
X171912426Y-55788342D01*
X171912427Y-55788342D01*
X171912428Y-55788343D01*
X172024227Y-55826723D01*
X172125365Y-55861444D01*
X172347431Y-55898500D01*
X172347435Y-55898500D01*
X172572565Y-55898500D01*
X172572569Y-55898500D01*
X172794635Y-55861444D01*
X173007574Y-55788342D01*
X173205576Y-55681189D01*
X173383240Y-55542906D01*
X173535722Y-55377268D01*
X173624518Y-55241354D01*
X173678520Y-55195268D01*
X173748868Y-55185692D01*
X173813225Y-55215669D01*
G37*
G04 #@! TD.AperFunction*
G04 #@! TA.AperFunction,Conductor*
G36*
X166193524Y-52675212D02*
G01*
X166215782Y-52700898D01*
X166304674Y-52836958D01*
X166457097Y-53002534D01*
X166634698Y-53140767D01*
X166634704Y-53140771D01*
X166668207Y-53158902D01*
X166718597Y-53208915D01*
X166733949Y-53278232D01*
X166709388Y-53344845D01*
X166668207Y-53380528D01*
X166634430Y-53398807D01*
X166634424Y-53398811D01*
X166456762Y-53537091D01*
X166304279Y-53702729D01*
X166215483Y-53838643D01*
X166161479Y-53884731D01*
X166091131Y-53894306D01*
X166026774Y-53864329D01*
X166004517Y-53838643D01*
X165915720Y-53702729D01*
X165763237Y-53537091D01*
X165643367Y-53443792D01*
X165585576Y-53398811D01*
X165552319Y-53380813D01*
X165501929Y-53330802D01*
X165486576Y-53261485D01*
X165511136Y-53194872D01*
X165552320Y-53159186D01*
X165553741Y-53158417D01*
X165585576Y-53141189D01*
X165763240Y-53002906D01*
X165915722Y-52837268D01*
X165915927Y-52836955D01*
X165976688Y-52743953D01*
X166004816Y-52700898D01*
X166058819Y-52654810D01*
X166129167Y-52645235D01*
X166193524Y-52675212D01*
G37*
G04 #@! TD.AperFunction*
G04 #@! TA.AperFunction,Conductor*
G36*
X168732925Y-52675212D02*
G01*
X168755183Y-52700898D01*
X168844279Y-52837270D01*
X168996762Y-53002908D01*
X169023261Y-53023533D01*
X169174424Y-53141189D01*
X169206259Y-53158417D01*
X169207680Y-53159186D01*
X169258071Y-53209200D01*
X169273423Y-53278516D01*
X169248862Y-53345129D01*
X169207680Y-53380813D01*
X169174426Y-53398810D01*
X169174424Y-53398811D01*
X168996762Y-53537091D01*
X168844279Y-53702729D01*
X168755483Y-53838643D01*
X168701479Y-53884731D01*
X168631131Y-53894306D01*
X168566774Y-53864329D01*
X168544517Y-53838643D01*
X168455720Y-53702729D01*
X168303237Y-53537091D01*
X168183367Y-53443792D01*
X168125576Y-53398811D01*
X168091792Y-53380528D01*
X168041402Y-53330516D01*
X168026050Y-53261199D01*
X168050610Y-53194586D01*
X168091793Y-53158901D01*
X168125300Y-53140767D01*
X168125301Y-53140767D01*
X168302902Y-53002534D01*
X168455327Y-52836955D01*
X168544217Y-52700899D01*
X168598220Y-52654810D01*
X168668568Y-52645235D01*
X168732925Y-52675212D01*
G37*
G04 #@! TD.AperFunction*
G04 #@! TA.AperFunction,Conductor*
G36*
X171273225Y-52675669D02*
G01*
X171295480Y-52701353D01*
X171323310Y-52743950D01*
X171384275Y-52837265D01*
X171384279Y-52837270D01*
X171536762Y-53002908D01*
X171563261Y-53023533D01*
X171714424Y-53141189D01*
X171746259Y-53158417D01*
X171747680Y-53159186D01*
X171798071Y-53209200D01*
X171813423Y-53278516D01*
X171788862Y-53345129D01*
X171747680Y-53380813D01*
X171714426Y-53398810D01*
X171714424Y-53398811D01*
X171536762Y-53537091D01*
X171384279Y-53702729D01*
X171295483Y-53838643D01*
X171241479Y-53884731D01*
X171171131Y-53894306D01*
X171106774Y-53864329D01*
X171084517Y-53838643D01*
X170995720Y-53702729D01*
X170843237Y-53537091D01*
X170723367Y-53443792D01*
X170665576Y-53398811D01*
X170632319Y-53380813D01*
X170581929Y-53330802D01*
X170566576Y-53261485D01*
X170591136Y-53194872D01*
X170632320Y-53159186D01*
X170633741Y-53158417D01*
X170665576Y-53141189D01*
X170843240Y-53002906D01*
X170995722Y-52837268D01*
X170995927Y-52836955D01*
X171052737Y-52750000D01*
X171084518Y-52701354D01*
X171138520Y-52655268D01*
X171208868Y-52645692D01*
X171273225Y-52675669D01*
G37*
G04 #@! TD.AperFunction*
G04 #@! TA.AperFunction,Conductor*
G36*
X178893225Y-52675669D02*
G01*
X178915480Y-52701353D01*
X178943310Y-52743950D01*
X179004275Y-52837265D01*
X179004279Y-52837270D01*
X179156762Y-53002908D01*
X179183261Y-53023533D01*
X179334424Y-53141189D01*
X179366259Y-53158417D01*
X179367680Y-53159186D01*
X179418071Y-53209200D01*
X179433423Y-53278516D01*
X179408862Y-53345129D01*
X179367680Y-53380813D01*
X179334426Y-53398810D01*
X179334424Y-53398811D01*
X179156762Y-53537091D01*
X179004279Y-53702729D01*
X178915483Y-53838643D01*
X178861479Y-53884731D01*
X178791131Y-53894306D01*
X178726774Y-53864329D01*
X178704517Y-53838643D01*
X178615720Y-53702729D01*
X178463237Y-53537091D01*
X178343367Y-53443792D01*
X178285576Y-53398811D01*
X178252319Y-53380813D01*
X178201929Y-53330802D01*
X178186576Y-53261485D01*
X178211136Y-53194872D01*
X178252320Y-53159186D01*
X178253741Y-53158417D01*
X178285576Y-53141189D01*
X178463240Y-53002906D01*
X178615722Y-52837268D01*
X178615927Y-52836955D01*
X178672737Y-52750000D01*
X178704518Y-52701354D01*
X178758520Y-52655268D01*
X178828868Y-52645692D01*
X178893225Y-52675669D01*
G37*
G04 #@! TD.AperFunction*
G04 #@! TA.AperFunction,Conductor*
G36*
X163653225Y-52675669D02*
G01*
X163675480Y-52701353D01*
X163703310Y-52743950D01*
X163764275Y-52837265D01*
X163764279Y-52837270D01*
X163916762Y-53002908D01*
X163943261Y-53023533D01*
X164094424Y-53141189D01*
X164126259Y-53158417D01*
X164127680Y-53159186D01*
X164178071Y-53209200D01*
X164193423Y-53278516D01*
X164168862Y-53345129D01*
X164127680Y-53380813D01*
X164094426Y-53398810D01*
X164094424Y-53398811D01*
X163916762Y-53537091D01*
X163855754Y-53603363D01*
X163794901Y-53639933D01*
X163723936Y-53637798D01*
X163665391Y-53597636D01*
X163644999Y-53562057D01*
X163600889Y-53443797D01*
X163600887Y-53443792D01*
X163513261Y-53326738D01*
X163396207Y-53239112D01*
X163396203Y-53239110D01*
X163281192Y-53196213D01*
X163224356Y-53153667D01*
X163199546Y-53087146D01*
X163214638Y-53017772D01*
X163232525Y-52992820D01*
X163375714Y-52837277D01*
X163375724Y-52837265D01*
X163432737Y-52750000D01*
X163464518Y-52701354D01*
X163518520Y-52655268D01*
X163588868Y-52645692D01*
X163653225Y-52675669D01*
G37*
G04 #@! TD.AperFunction*
G04 #@! TA.AperFunction,Conductor*
G36*
X166878610Y-50520502D02*
G01*
X166925103Y-50574158D01*
X166935207Y-50644432D01*
X166905713Y-50709012D01*
X166851402Y-50745673D01*
X166832628Y-50752118D01*
X166634699Y-50859231D01*
X166634698Y-50859232D01*
X166457097Y-50997465D01*
X166304670Y-51163045D01*
X166215780Y-51299101D01*
X166161776Y-51345189D01*
X166091428Y-51354764D01*
X166027071Y-51324786D01*
X166004816Y-51299101D01*
X165965884Y-51239511D01*
X165915724Y-51162734D01*
X165915720Y-51162729D01*
X165799570Y-51036559D01*
X165763240Y-50997094D01*
X165763239Y-50997093D01*
X165763237Y-50997091D01*
X165660678Y-50917266D01*
X165585576Y-50858811D01*
X165387574Y-50751658D01*
X165370139Y-50745672D01*
X165312205Y-50704635D01*
X165285654Y-50638791D01*
X165298916Y-50569044D01*
X165347780Y-50517539D01*
X165411053Y-50500500D01*
X166810489Y-50500500D01*
X166878610Y-50520502D01*
G37*
G04 #@! TD.AperFunction*
G04 #@! TA.AperFunction,Conductor*
G36*
X164337068Y-50520502D02*
G01*
X164383561Y-50574158D01*
X164393665Y-50644432D01*
X164364171Y-50709012D01*
X164309860Y-50745673D01*
X164292425Y-50751658D01*
X164094426Y-50858810D01*
X164094424Y-50858811D01*
X163916762Y-50997091D01*
X163764279Y-51162729D01*
X163675483Y-51298643D01*
X163621479Y-51344731D01*
X163551131Y-51354306D01*
X163486774Y-51324329D01*
X163464517Y-51298643D01*
X163375720Y-51162729D01*
X163259570Y-51036559D01*
X163223240Y-50997094D01*
X163223239Y-50997093D01*
X163223237Y-50997091D01*
X163120678Y-50917266D01*
X163045576Y-50858811D01*
X162847574Y-50751658D01*
X162830139Y-50745672D01*
X162772205Y-50704635D01*
X162745654Y-50638791D01*
X162758916Y-50569044D01*
X162807780Y-50517539D01*
X162871053Y-50500500D01*
X164268947Y-50500500D01*
X164337068Y-50520502D01*
G37*
G04 #@! TD.AperFunction*
M02*
