M48
; DRILL file {KiCad 7.0.9-7.0.9~ubuntu20.04.1} date Fri 01 Mar 2024 12:09:39 PM MST
; FORMAT={-:-/ absolute / inch / decimal}
; #@! TF.CreationDate,2024-03-01T12:09:39-07:00
; #@! TF.GenerationSoftware,Kicad,Pcbnew,7.0.9-7.0.9~ubuntu20.04.1
; #@! TF.FileFunction,Plated,1,2,PTH
FMAT,2
INCH
; #@! TA.AperFunction,Plated,PTH,ViaDrill
T1C0.0157
; #@! TA.AperFunction,Plated,PTH,ComponentDrill
T2C0.0394
%
G90
G05
T1
X3.7126Y-3.7795
X3.7283Y-3.9291
X3.9213Y-2.8858
X3.9252Y-2.4567
X3.9331Y-3.5394
X3.9331Y-3.6732
X3.937Y-3.0236
X3.9449Y-3.3976
X3.9488Y-2.7244
X3.9528Y-3.2323
X3.9882Y-2.2047
X4.0591Y-2.0945
X4.1929Y-2.0315
X4.3583Y-2.0157
X4.5276Y-2.0236
X4.6811Y-2.0236
X4.8425Y-2.0276
X5.0433Y-3.5591
X5.0827Y-2.0197
X5.1693Y-3.6772
X5.2953Y-2.0079
X5.3307Y-2.0236
X5.378Y-3.6772
X5.3819Y-3.5354
X5.3937Y-3.4016
X5.3976Y-3.9567
X5.4094Y-3.315
X5.5Y-2.0236
X5.5354Y-3.3504
X5.7165Y-2.0157
X5.8346Y-2.0157
X5.9538Y-2.0039
X6.0512Y-2.1772
X6.1496Y-2.2047
X6.315Y-2.185
X6.5079Y-2.2126
X6.6496Y-2.2244
X6.7638Y-2.2402
X6.8583Y-2.0039
X6.9016Y-2.2323
X7.0Y-2.122
X7.4291Y-1.9882
X7.5283Y-2.1178
T2
X5.5709Y-2.5197
X5.5709Y-2.6197
X5.5709Y-2.7197
X5.5709Y-2.8197
X5.5709Y-2.9197
X5.5709Y-3.0197
X5.5709Y-3.1197
X5.5709Y-3.2197
X7.1772Y-2.0472
X7.1772Y-2.1472
X7.2772Y-2.0472
X7.2772Y-2.1472
X7.3772Y-2.0472
X7.3772Y-2.1472
X7.4772Y-2.0472
X7.4772Y-2.1472
X7.5772Y-2.0472
X7.5772Y-2.1472
X7.6772Y-2.0472
X7.6772Y-2.1472
X7.7772Y-2.0472
X7.7772Y-2.1472
X7.8772Y-2.0472
X7.8772Y-2.1472
X7.9772Y-2.0472
X7.9772Y-2.1472
X8.0772Y-2.0472
X8.0772Y-2.1472
X8.1772Y-2.0472
X8.1772Y-2.1472
X8.2772Y-2.0472
X8.2772Y-2.1472
T0
M30
